<?xml version="1.0" encoding="UTF-8" standalone="no"?>
<svg
   id="visual"
   viewBox="0 0 1920 1080"
   width="1920"
   height="1080"
   version="1.1"
   sodipodi:docname="blob-scene-haikei.svg"
   inkscape:version="1.2 (dc2aedaf03, 2022-05-15)"
   xmlns:inkscape="http://www.inkscape.org/namespaces/inkscape"
   xmlns:sodipodi="http://sodipodi.sourceforge.net/DTD/sodipodi-0.dtd"
   xmlns="http://www.w3.org/2000/svg"
   xmlns:svg="http://www.w3.org/2000/svg">
  <sodipodi:namedview
     id="namedview54"
     pagecolor="#ffffff"
     bordercolor="#000000"
     borderopacity="0.25"
     inkscape:showpageshadow="2"
     inkscape:pageopacity="0.0"
     inkscape:pagecheckerboard="0"
     inkscape:deskcolor="#d1d1d1"
     showgrid="false"
     inkscape:zoom="0.33849464"
     inkscape:cx="960.13339"
     inkscape:cy="540.62895"
     inkscape:window-width="1366"
     inkscape:window-height="697"
     inkscape:window-x="-8"
     inkscape:window-y="-8"
     inkscape:window-maximized="1"
     inkscape:current-layer="visual" />
  <defs
     id="defs36">
    <linearGradient
       id="grad1_0"
       x1="43.8%"
       y1="0%"
       x2="100%"
       y2="100%">
      <stop
         offset="14.444444444444446%"
         stop-color="#fdd7da"
         stop-opacity="1"
         id="stop31" />
      <stop
         offset="85.55555555555554%"
         stop-color="#fdd7da"
         stop-opacity="1"
         id="stop33" />
    </linearGradient>
  </defs>
  <defs
     id="defs43">
    <linearGradient
       id="grad2_0"
       x1="0%"
       y1="0%"
       x2="56.3%"
       y2="100%">
      <stop
         offset="14.444444444444446%"
         stop-color="#fdd7da"
         stop-opacity="1"
         id="stop38" />
      <stop
         offset="85.55555555555554%"
         stop-color="#fdd7da"
         stop-opacity="1"
         id="stop40" />
    </linearGradient>
  </defs>
  <g
     transform="translate(1920, 0)"
     id="g47">
    <path
       d="M0 648C-62.9 588.9 -125.7 529.9 -210.5 508.1C-295.2 486.4 -401.8 501.9 -458.2 458.2C-514.6 414.5 -520.9 311.6 -544.2 225.4C-567.4 139.2 -607.7 69.6 -648 0L0 0Z"
       fill="#F23849"
       id="path45" />
  </g>
  <g
     transform="translate(0, 1080)"
     id="g51">
    <path
       d="M0 -648C80.9 -630 161.8 -612.1 241.9 -583.9C321.9 -555.7 401.1 -517.3 458.2 -458.2C515.3 -399.1 550.4 -319.4 578.3 -239.6C606.3 -159.7 627.2 -79.9 648 0L0 0Z"
       fill="#F23849"
       id="path49" />
  </g>
</svg>
