<svg viewBox="12.799999999999955 115.19999999999993 998.3999999999997 550.3999999999999" xmlns="http://www.w3.org/2000/svg" overflow="visible" xmlns:xlink="http://www.w3.org/1999/xlink" width="998.3999999999997px" height="550.3999999999999px"><g id="Master/Doodles/Levitate" stroke="none" stroke-width="1" fill="none" fill-rule="evenodd"><path d="M853.942712,405.137221 C859.557886,401.418739 871.254817,418.374544 866.172458,424.307601 C862.026208,430.411691 849.560963,409.289181 853.942712,405.137221 Z M834.050424,398.396182 C837.363597,400.133046 839.512524,401.632529 836.863162,405.617881 C819.936687,409.113725 826.613078,387.495811 834.050424,398.396182 Z M817.533128,363.251959 C824.537745,362.23756 833.589729,369.566891 827.600701,375.141665 C824.567182,374.72293 821.819205,373.687889 818.157199,375.051725 C806.551525,377.499259 803.841817,363.14875 817.533128,363.251959 Z M810.775784,393.402329 C815.347404,399.985605 814.9029,410.008697 814.196404,418.918604 C805.619833,417.00481 807.207978,398.835559 810.775784,393.402329 Z M780.606918,369.257263 C774.601699,368.694035 769.431028,360.323766 775.27287,355.204587 C781.628394,351.934328 793.499004,359.002687 793.490183,366.33939 C793.075107,373.643656 786.853523,370.936625 780.606918,369.257263 Z M757.82241,310.44716 C762.160003,311.881768 770.133109,328.713722 765.551186,332.407139 C759.432633,335.524058 752.164552,314.133204 757.82241,310.44716 Z M727.325317,328.818406 C731.671741,316.287329 746.006258,338.443405 742.579751,345.46016 C736.923364,350.347855 726.789557,335.041923 727.325317,328.818406 Z M731.729144,286.598452 C738.577743,295.704456 727.123671,301.3559 719.78494,304.264926 C702.820196,308.349063 725.369205,280.829055 731.729144,286.598452 Z M696.969523,281.60165 C692.81297,272.759566 703.600286,256.679565 703.386865,272.303971 C701.180536,275.808662 702.39777,295.996391 696.969523,281.60165 Z M680.961493,260.853642 C680.617076,252.738447 688.359099,248.946244 687.471563,261.129358 C686.012942,267.68462 681.924094,270.347419 680.961493,260.853642 Z M682.499595,226.0736 C683.494577,229.318794 683.59172,232.407699 679.873783,233.568066 C649.438508,247.644333 676.347189,213.256486 682.499595,226.0736 Z M668.622828,198.807192 C674.436705,202.11726 678.28711,215.942876 667.763258,209.412679 C660.477514,207.453178 654.407533,206.425509 646.238669,204.731403 C630.419038,192.978818 661.497518,190.827643 668.622828,198.807192 Z M633.732211,342.135347 C626.827681,328.890652 642.843071,331.745125 650.192105,334.615817 C661.615268,343.44463 639.749205,345.893638 633.732211,342.135347 Z M634.026585,223.533179 C629.653667,222.711928 625.427935,219.754246 619.750943,220.383822 C610.696014,200.19167 641.399169,209.831414 634.026585,223.533179 Z M623.365849,235.820977 C631.542072,230.106133 626.857118,256.402375 623.582213,260.103164 C611.767534,273.287408 620.609041,240.202946 623.365849,235.820977 Z M694.869168,394.558273 C692.359634,408.447289 683.529902,419.702994 687.046193,397.169467 C687.528966,388.896508 697.64511,380.492327 694.869168,394.558273 Z M590.323897,199.924801 C593.564949,188.419918 598.829819,179.471677 603.205681,167.83852 C608.13938,172.469666 609.611248,180.688071 605.728462,187.340645 C603.288105,191.306828 591.451348,216.054931 590.323897,199.924801 Z M591.878189,237.607971 C590.56234,243.060368 595.840456,248.938872 593.625296,253.140963 C578.615192,254.814427 585.318076,211.024218 591.878189,237.607971 Z M558.875978,150.077683 C565.487606,150.083581 584.801451,147.83067 579.959007,158.259228 C572.63941,159.366515 545.604149,163.006853 558.875978,150.077683 Z M562.177376,174.567763 C566.635663,176.617204 573.306166,184.14853 569.198184,188.950709 C562.324563,190.798154 555.680554,178.812612 562.177376,174.567763 Z M563.045778,262.332483 C562.379022,265.760505 563.927427,281.123938 557.224543,278.97866 C551.921404,267.150881 557.005234,240.786816 568.294457,262.799874 C566.650381,262.653906 565.063708,262.512362 563.045778,262.332483 Z M559.157104,228.348627 C560.328711,231.122007 555.877784,237.62419 553.201929,233.345429 C550.908759,230.20197 556.155967,220.10958 559.157104,228.348627 Z M534.877179,182.419038 C541.374002,191.864158 552.533701,196.694351 561.104385,205.753174 C569.648575,222.063184 545.3922,209.001317 540.917723,203.158199 C536.833291,199.669726 525.591168,185.117222 534.877179,182.419038 Z M516.025501,257.931346 C522.270635,251.811038 536.195973,239.682477 529.603478,257.477225 C526.621475,262.733525 513.327568,270.320879 516.025501,257.931346 Z M528.080096,231.235537 C520.645693,226.545414 516.200654,234.233029 509.106253,235.073447 C501.562932,222.372812 532.235177,213.965681 528.080096,231.235537 Z M490.016132,191.470489 C495.504726,194.787929 508.543999,204.628193 503.569087,210.887097 C496.894169,208.735921 484.265546,197.929913 490.016132,191.470489 Z M453.803778,315.342227 C454.31746,310.849676 461.317661,309.185058 458.984751,316.571891 C461.073331,319.315783 465.668501,322.736432 464.482176,328.02222 C460.054799,336.147737 449.903329,321.814921 453.803778,315.342227 Z M451.40169,279.550735 C462.71152,284.454648 453.416677,290.51598 445.016729,290.809389 C439.723894,284.801136 443.591962,277.866949 451.40169,279.550735 Z M452.674856,163.488988 C441.868405,151.521138 476.825256,154.614467 473.314853,165.414577 C467.178637,163.171988 459.854625,165.691768 452.674856,163.488988 Z M840.669412,357.672762 C823.190986,339.597874 801.36172,328.740262 784.563297,310.035797 C726.087476,242.010583 745.426342,266.577332 719.294808,264.259547 C713.555997,259.059276 720.13966,253.592135 727.320901,255.194827 C698.010133,205.912411 666.313513,188.032146 636.378674,156.730256 C632.894763,151.51524 627.543009,165.929149 621.866016,156.730256 C617.952321,151.765892 628.014006,149.368488 624.340225,145.509937 C608.472022,127.791858 614.681831,134.789445 599.986707,145.241593 C595.656473,139.724321 599.178652,135.051891 604.250707,130.753963 C594.055081,131.676949 596.806001,124.617436 590.499049,123 C567.456965,126.860026 546.967098,137.527439 523.988304,138.51235 C515.759093,141.400734 514.689046,159.311962 511.290504,166.974511 C504.032726,170.563244 506.007972,146.00013 509.106253,142.148951 C507.456289,142.135681 501.555573,136.685546 494.340479,137.806104 C414.039808,134.810087 400.363152,125.746059 431,174.567763 C434.245468,184.349051 447.19215,177.308706 452.230352,184.841506 C453.719882,188.860769 450.068178,189.192513 446.119158,188.826858 C446.657862,189.512462 447.19215,190.201015 447.730853,190.886619 C437.807523,199.82454 456.804916,208.520656 461.012985,217.317033 C465.740623,223.848704 467.246343,237.425143 477.00924,230.8227 C478.520848,236.157144 485.837501,231.251756 490.738819,232.210127 C496.071395,236.475618 488.767989,241.730443 483.825458,242.43374 C488.070323,246.522301 481.845796,249.353183 482.854025,254.835069 C489.196302,264.333268 499.288897,303.517396 478.874096,288.681804 C472.010778,280.870338 480.5638,277.514564 488.573702,279.416562 C489.160977,275.683337 487.562529,270.372484 485.8846,266.059812 C480.781636,270.192605 472.546538,271.233544 477.00924,260.103164 C467.621669,262.329534 456.575304,264.598663 445.839503,264.654691 C452.295114,279.213093 436.721285,273.411259 432.564731,264.841942 C429.216233,263.998575 421.743829,263.412775 417,263.187189 C420.285208,275.430755 428.811469,291.067412 432.564731,304.794242 C436.911156,300.618691 445.531883,307.390692 441.540179,311.35835 C437.254101,313.351763 434.262285,314.539161 432.564731,314.920543 C437.00094,327.003397 437.098083,399.490073 441.540179,380.302 C442.598451,371.785763 452.883861,363.016052 447.935443,357.985339 C436.983277,349.000237 451.665155,343.227891 455.338936,353.442658 C463.916979,343.35764 477.225604,336.598905 482.854025,323.23773 C488.348506,326.397408 491.13328,321.648312 494.124114,314.920543 C496.436418,319.774327 505.154289,319.584127 507.699147,313.799986 C509.773009,309.130505 506.138968,306.874645 512.451807,303.813754 C518.708716,300.802993 515.916583,293.681555 520.104046,287.202963 C523.655662,284.574076 525.700086,293.598987 523.785187,297.094832 C526.380089,298.144618 529.906683,292.218932 532.566348,295.194308 C547.872297,299.881482 565.533234,294.181382 581.258666,292.127518 C587.37992,290.809389 601.717558,316.486371 606.920609,323.23773 C621.824739,302.582611 625.234596,318.078746 613.053421,328.818406 C623.196059,340.699264 636.184342,357.625126 646.238669,371.167653 C644.900741,363.071625 657.460186,350.555748 658.575861,359.529054 C649.941887,372.127955 663.933808,390.823381 669.784481,400.650376 C673.383197,406.154378 676.421589,412.640533 678.73978,418.918604 C688.916272,415.542187 702.528766,409.371748 712.625777,402.489166 C706.86636,398.670424 711.920752,393.384636 718.851776,396.087244 C715.674014,393.020455 719.821737,389.405182 718.364588,384.200488 C714.770288,376.026315 707.614068,373.00081 699.913258,370.601932 C686.748876,385.915236 666.579876,361.777542 696.804674,366.231758 C690.998157,358.364264 681.642968,344.257035 672.367259,340.823116 C663.05917,343.207249 651.952458,334.642356 665.018225,330.241219 C655.782257,320.561666 662.875186,317.84284 658.262354,311.62522 C654.6813,306.678548 646.778844,302.396839 644.528359,295.409573 C644.441519,288.656739 637.570841,280.305636 647.745861,278.804679 C644.039699,279.537465 646.475639,250.355787 651.952458,261.497963 C655.128748,265.536393 648.550972,281.215352 656.396026,276.301118 C658.368328,287.223605 661.936135,285.858294 668.622828,288.681804 C671.111756,291.632114 673.659611,295.387482 676.824126,299.133978 C683.254715,288.153988 700.070748,289.960124 693.269248,303.557205 C691.288115,301.526932 689.39235,302.738903 686.12922,304.794242 C707.980563,326.90756 721.635077,349.921748 739.837662,362.974769 C758.040246,376.02779 771.993549,391.795214 791.426615,403.64511 C798.647597,424.388694 794.838404,430.355663 817.321179,434.663912 C821.645525,441.711629 822.333099,448.327342 829.554081,444.806432 C830.419539,446.319184 832.323923,447.887296 834.050424,450.452783 C834.436053,444.764479 847.150044,424.723387 848.998709,439.094537 C844.876009,444.122302 840.944651,454.044228 836.863162,459.514319 C839.868716,465.953101 845.126647,474.031422 846.05098,482.550608 C855.463572,474.597599 866.344667,462.856255 875.972152,456.252337 C875.408427,452.50879 876.013364,448.971662 877.906186,444.806432 C882.599971,461.454083 883.068025,446.718752 891.794727,449.272443 C894.270408,451.203931 897.869123,449.326997 901.10576,448.861081 C901.937365,445.755957 904.906122,441.34155 901.124894,437.248566 C887.070032,400.54146 859.251738,382.737865 840.669412,357.672762 Z" id="Accent" fill="#f23849"/><path d="M153.192579,333.199669 C231.179312,403.085432 223.356182,370.661943 200.418648,424.659432 C190.251526,439.46261 185.715289,455.317067 179.632106,472.956491 L179.13319,474.338313 C172.592256,492.233212 164.014134,507.512936 166.094114,528.080245 C165.165946,532.833788 157.90561,526.142363 158.209106,532.066281 C156.782969,550.051231 157.602114,567.496574 151.888724,585.391834 C146.427266,598.812911 135.888877,608.139149 120.883495,611.115076 L116.222332,612.720189 C86.7890657,622.794457 59.0552088,631.41497 35.1959153,654.754163 C1.16898397,659.516528 54.6903885,593.350674 63.9013504,588.467742 C95.9982817,551.967058 116.764198,546.41072 121.245923,524.113322 C117.94135,520.278729 117.346144,527.420071 113.110457,524.417679 C110.206618,510.437879 114.927015,494.992172 115.270289,479.772893 C120.532854,428.755742 129.942709,379.692647 153.192579,333.199669 Z M126.501121,525.468957 L126.239107,527.125713 C121.92473,553.671413 115.830726,555.270336 97.089984,571.742857 C78.2525947,593.318327 54.7611061,611.465012 39.2327092,636.714811 C74.1848618,604.347195 124.482724,608.446446 139.728251,586.093176 C146.995953,574.615861 147.010686,561.840254 148.083236,547.826637 L148.407286,546.078809 C153.461397,518.355341 146.805517,530.636072 126.501121,525.468957 Z M599.645953,119.160547 C629.285407,132.95691 648.389007,168.301809 678.430626,184.922231 L683.518614,182.99476 C690.956866,180.197695 698.559424,177.639171 707.433686,177.65595 L710.129521,177.093494 L710.129521,177.093494 C701.647216,148.256591 727.353402,148.590826 745.19158,145.229342 L745.862853,143.545647 C747.16092,140.33038 748.566289,137.705231 753.679777,137.583183 L754.595897,138.131494 C769.183527,146.961843 765.648843,149.684169 785.925205,151.744701 C791.123894,152.567771 794.447284,154.074033 800.65507,154.015137 C802.713038,152.408752 804.474906,150.07353 807.986858,149.662731 C830.3726,147.641129 850.712159,163.828666 857.497414,185.115115 C862.74619,197.961782 857.492995,211.587347 852.746557,224.325057 C860.006161,244.929786 920.783245,244.461563 897.662409,277.273939 C929.082881,294.274239 959.950929,315.45762 984.011624,343.680533 C995.821738,358.484016 1011.71833,392.338848 982.058249,393.995295 C977.965883,393.799467 971.033315,395.974198 970.953766,402.32612 C972.049777,413.005418 980.337628,418.715375 984.250272,429.293078 C1023.90998,511.395428 936.25999,462.715026 904.720193,440.285996 C905.869238,443.704903 907.723913,448.248721 908.868538,452.247753 L908.730552,452.491173 C907.759905,454.155796 907.226714,454.172242 910.029368,457.022737 C920.481253,468.985966 922.07371,482.939876 932.76277,495.203474 C938.232516,508.251859 975.742924,524.401114 958.997811,536.071335 C965.360276,553.333722 957.016446,552.498873 945.039868,543.43185 C953.532484,563.652283 939.633466,556.752629 929.053419,547.514807 C945.004512,603.51008 896.987714,548.817879 895.725238,527.874499 C880.94234,541.268898 879.799188,520.759875 882.060448,509.459225 C881.631766,505.965226 886.182277,502.496258 881.97206,500.268521 C887.011651,494.093286 883.100481,483.475829 877.362624,476.851513 C871.415583,462.310116 854.912064,488.368605 843.570406,485.652032 C833.556042,472.983525 824.533097,455.242609 814.204956,439.744154 C807.410862,464.312577 787.047733,474.20267 772.387104,447.98369 C764.169964,426.464602 766.580011,403.724897 750.48013,385.31993 C730.776965,357.347325 705.453794,336.082962 680.837727,311.953314 C653.452168,284.064635 669.434197,281.097755 646.229392,294.056324 C671.352218,328.825515 711.551095,354.105106 728.241702,395.511865 L728.371195,396.561632 C728.927193,401.276626 729.123707,405.09754 733.225313,409.066755 C737.671231,418.422368 745.391926,421.835385 753.293816,427.888411 C760.18219,434.041559 763.477591,445.633744 750.172246,444.115702 C754.556292,455.98028 765.987811,464.94129 770.07723,477.406607 C775.37462,496.207649 744.860125,474.394082 740.697048,469.153819 C742.111257,483.182821 736.315948,483.271165 728.74404,471.234317 C730.523586,494.615987 712.023971,467.242648 709.742086,459.256364 C705.023853,448.713048 706.404332,438.140087 700.337352,428.001925 L699.939854,427.355403 C697.002425,422.146061 683.263978,430.830261 678.093278,430.490137 C671.726394,429.506575 656.226079,420.954891 670.711404,418.201508 C647.721677,376.534135 609.004773,344.948267 587.585406,301.567023 C557.74266,294.171171 521.815871,314.029394 496.501539,332.669945 C430.715799,388.578346 452.749463,407.030429 435.043867,392.698113 C418.375357,366.760361 430.31658,334.579644 423.323613,305.190593 L423.089106,304.021113 C421.065951,294.12268 417.318666,280.538017 411.783083,273.243987 L411.433173,273.277757 C409.253697,273.507657 407.761574,273.976946 406.476854,270.977967 C405.316025,265.197335 402.768976,265.999792 397.356683,268.449861 L392.878255,270.1516 C385.176004,273.06628 378.619195,275.330297 369.399548,275.973812 C343.95073,275.753025 318.951632,274.322195 293.91261,272.286903 L290.64477,272.017809 L290.64477,272.017809 C265.839585,269.951044 240.973724,267.316913 215.571963,264.704082 C261.065283,296.303202 280.398692,328.182078 311.098802,354.80155 C344.419617,386.60975 352.29941,376.784443 349.898202,393.868669 C359.034578,398.397764 379.561225,391.471606 384.977939,406.47828 C399.889,446.549575 396.359371,490.397569 403.364123,532.932184 C394.270467,531.492179 402.760138,560.491046 388.227672,551.45936 C380.072403,576.702141 360.931974,520.041345 360.357452,513.661447 C355.210322,488.596827 352.096117,463.698587 342.741717,439.141944 C340.037044,441.836431 338.63904,451.116952 331.921549,447.761358 C312.705991,439.580718 294.462701,428.955899 275.753901,417.880526 C228.089181,393.309158 185.200361,361.970653 148.092119,323.119976 L146.831497,321.834933 C126.10165,300.837237 98.7817322,279.338387 102.310065,246.085618 C106.278687,211.211886 202.51705,183.426275 221.635382,175.048334 C240.751886,165.250074 308.263992,144.160194 352.99674,138.38273 L354,138.374282 L349,138.422282 L349,138.422282 C350.604437,137.253218 352.215933,137.387295 353.830396,138.277961 C357.163021,137.857739 360.361859,137.52626 363.400474,137.292811 C362.932153,137.147968 362.466481,136.917594 362,136.592711 L368,136.494711 L368,136.494711 C367.609147,136.719129 367.217944,136.91327 366.826347,137.069729 L367.812901,137.020204 C383.163138,136.307051 393.509651,138.554952 394.286672,145.469343 C401.091077,146.527997 401.28995,139.070304 406.04228,135.012377 C408.956139,132.101447 411.716792,135.072745 413.854309,130.141686 C443.727991,133.803539 474.659383,134.346853 505.698313,133.148322 C538.659684,133.257279 565.976005,113.019177 599.645953,119.160547 Z M901.140478,454.808252 C894.262416,455.918439 885.416247,463.58963 878.040266,467.959705 L881.030309,470.745914 C888.89825,478.142706 903.489375,492.530469 898.840916,495.531818 C891.456096,497.840537 894.238846,504.751971 893.353492,512.283283 C903.252952,499.45723 902.346975,521.917179 905.156241,528.429593 C908.223306,537.852936 914.668266,543.450991 921.603781,551.294452 L920.733426,548.487303 C907.067781,504.13698 920.221156,532.684321 939.886845,547.23358 C938.421077,539.939323 933.092752,532.818809 927.313648,526.860017 C917.920946,504.635651 947.501474,543.361174 954.710991,540.931719 C951.950339,536.4733 952.239073,528.454623 947.034491,524.997434 C934.769178,518.252382 927.450649,505.479335 921.055775,492.043709 C909.770096,484.951171 910.092713,467.336881 901.140478,454.808252 Z M348.582693,416.751197 C345.568661,420.47489 347.022644,423.865821 345.079581,428.456756 C342.835998,432.208424 348.376454,437.519362 349.798029,442.575574 C366.419398,474.199725 364.446872,509.806711 379.533236,542.398227 C379.863218,538.534656 383.881927,538.123857 387.538245,541.339573 C389.015799,532.123838 391.204876,521.379754 393.065444,511.474937 C389.756785,491.560763 388.017014,473.120458 386.504105,452.294869 C380.642506,417.083959 387.393878,403.964898 352.457035,401.790167 C348.45895,401.557528 349.783297,412.192655 348.582693,416.751197 Z M535.345133,143.380011 C497.990877,151.432552 447.272351,148.440641 419.019116,138.543186 C418.596327,158.922638 435.70825,174.943794 447.00424,191.695259 L455.411174,202.630947 C480.911952,235.913354 507.529124,273.421411 497.370688,313.739332 C568.181287,259.257684 613.904416,302.014632 664.991225,270.802752 C667.611931,274.171597 665.857428,277.198846 664.866009,282.230028 C674.597531,294.595221 687.095599,307.279925 699.872089,318.264009 C760.386956,378.607271 833.393997,419.996361 846.946829,477.896915 C864.836567,464.540798 883.162352,444.588342 900.352351,448.796453 C870.597993,388.048283 808.417013,351.304606 763.535043,301.714263 C751.036975,287.635199 740.400949,274.976999 728.886934,259.303329 C697.777293,205.915672 663.095302,188.05402 632.542506,155.799683 C625.713057,148.486285 617.847995,139.613619 609.660317,132.055803 C585.100229,127.154192 560.494474,136.967721 535.345133,143.380011 Z M724.080098,412.783086 C720.158616,417.407886 707.17736,416.45819 707.046251,423.937968 C707.747463,427.729392 713.056638,431.961062 707.857948,434.933832 L708.140501,436.00275 C710.472909,445.013039 712.32228,456.509664 719.080282,464.51724 C718.246488,437.107091 725.121604,452.256587 732.821675,466.013196 C735.090301,464.004846 731.500274,457.571942 731.497327,452.814626 C732.413617,435.887946 745.452325,472.917267 757.012006,470.255173 C752.345118,465.212212 750.33871,452.640883 743.500422,456.564822 C750.16488,452.082844 741.921223,439.616056 749.747983,433.898737 C745.51125,432.02143 737.083451,419.395623 733.44481,426.276135 L724.080098,412.783086 L724.080098,412.783086 Z M627.986103,298.385172 C616.295312,300.683584 605.933288,298.046521 593.417543,300.629106 C613.497831,326.901092 636.969273,352.163014 657.847999,379.22715 C691.563614,418.690344 665.997376,423.106064 704.064628,407.02454 C708.134897,402.276058 722.66589,401.9698 717.149003,394.482659 C702.469224,370.482582 683.592487,351.554914 664.061678,330.337668 C636.651076,294.280128 648.783807,294.418534 627.986103,298.385172 Z M477.31397,261.595851 C466.915118,265.404943 456.224585,264.424327 444.694367,264.84396 C436.74239,265.784822 428.721176,264.577456 419.63194,264.736475 C442.119329,314.362156 436.020554,341.695741 439.862487,380.302 C447.459439,350.892335 472.487983,342.258197 482.424271,316.824004 C489.327377,301.325918 490.656634,285.800627 485.643587,268.816471 L485.31946,267.741965 C484.24465,264.315547 481.910897,259.711058 477.31397,261.595851 Z M397.605642,153.464461 C417.285238,182.972777 423.238172,217.662459 421.745887,252.821835 L439.93909,252.821835 L441.990583,252.973788 C453.319771,253.790178 465.398043,254.242909 477.750018,252.132754 L476.414598,249.769687 C469.737148,238.000609 463.002566,226.905433 453.877883,215.586378 C396.145767,142.832279 431.668917,152.807772 397.605642,153.464461 Z M752.187493,146.34542 C747.890361,160.551109 730.277573,143.580257 739.418368,170.249791 C730.712147,178.579143 728.383122,163.133694 731.52679,156.077966 C705.442009,156.259071 726.706696,181.884675 730.715093,195.003735 C724.542662,203.073945 716.412437,189.33795 714.986443,182.698911 C704.895476,185.807142 694.182846,187.429723 683.017965,190.102125 C765.130447,263.495244 709.721462,250.025753 755.715648,226.920893 C758.345192,224.880151 755.941038,220.010932 760.516592,217.14123 C762.327073,216.048711 764.152286,216.839389 765.137813,219.766514 C770.205393,246.845375 790.80717,225.317453 773.172285,213.377782 C773.257726,208.956173 781.320188,211.423911 780.561524,206.057023 C780.44662,185.525914 796.3491,169.743286 810.012417,155.408025 L804.731232,154.33612 L804.731232,154.33612 L807.419701,156.901036 L807.419701,156.901036 C803.346486,159.763377 798.869632,158.472084 795.365046,160.353808 C794.378047,168.110397 791.558469,171.5882 786.208046,171.065499 L788.497296,160.25663 L788.497296,160.25663 L788.104901,160.173787 C787.35438,160.026641 785.746661,159.768677 783.907011,159.831107 L778.548174,159.075252 C766.457234,157.332574 762.808534,156.184802 752.187493,146.34542 Z M778,161.003724 C775.488992,166.009747 768.484151,164.788004 774.228492,172.125906 C780.035644,176.984606 772.274217,179.776313 768.145829,176.731626 C760.261635,168.764251 768.565519,160.802828 778,161.003724 Z" id="Shape" fill="#000000"/></g></svg>