<?xml version="1.0" encoding="UTF-8" standalone="no"?>
<svg
   version="1.1"
   width="24"
   height="24"
   viewBox="0 0 24 24"
   fill="#606060"
   id="svg12"
   sodipodi:docname="video-plus.svg"
   inkscape:version="1.2 (dc2aedaf03, 2022-05-15)"
   xmlns:inkscape="http://www.inkscape.org/namespaces/inkscape"
   xmlns:sodipodi="http://sodipodi.sourceforge.net/DTD/sodipodi-0.dtd"
   xmlns="http://www.w3.org/2000/svg"
   xmlns:svg="http://www.w3.org/2000/svg">
  <defs
     id="defs16" />
  <sodipodi:namedview
     id="namedview14"
     pagecolor="#ffffff"
     bordercolor="#000000"
     borderopacity="0.25"
     inkscape:showpageshadow="2"
     inkscape:pageopacity="0.0"
     inkscape:pagecheckerboard="0"
     inkscape:deskcolor="#d1d1d1"
     showgrid="false"
     inkscape:zoom="7.6161293"
     inkscape:cx="-1.3786531"
     inkscape:cy="12.342227"
     inkscape:window-width="1366"
     inkscape:window-height="697"
     inkscape:window-x="-8"
     inkscape:window-y="-8"
     inkscape:window-maximized="1"
     inkscape:current-layer="svg12" />
  <path
     d="m 5.5948728,18.580694 c -2.8116412,0 -5.09086083,-2.060997 -5.09086083,-4.601294 0,-2.00668 1.42013733,-3.71299 3.40097753,-4.3424761 -0.00462,-0.08627 -0.00705,-0.172548 -0.00705,-0.258822 0,-2.824681 2.5312899,-5.112548 5.6565141,-5.112548 2.0964424,0 3.9242024,1.030499 4.9034864,2.562666 0.537366,-0.354682 1.187868,-0.517645 1.884328,-0.517645 1.873717,0 3.393907,1.34524 3.393907,3.067527 0,0.389833 -0.08131,0.7604911 -0.226261,1.1055881 2.064626,0.377055 3.620168,2.029043 3.620168,4.006964 0,2.259106 -2.02574,4.09004 -4.525213,4.09004 z m 2.7929027,-6.933896 c -0.3287864,0.30036 -0.3287864,0.786053 0,1.057659 0.3323216,0.325922 0.8696877,0.325922 1.1701929,0 l 1.4105886,-1.220623 v 4.284957 c 0,0.424979 0.378279,0.766883 0.848477,0.766883 0.470198,0 0.848477,-0.341904 0.848477,-0.766883 v -4.284957 l 1.378778,1.220623 c 0.332316,0.325922 0.869688,0.325922 1.170188,0 0.360602,-0.271606 0.360602,-0.757299 0,-1.057659 L 12.386222,9.0905239 c -0.300505,-0.297167 -0.837871,-0.297167 -1.170193,0 z"
     id="path130"
     style="stroke-width:0.0336104" />
</svg>
