<?xml version="1.0" encoding="UTF-8" standalone="no"?>
<svg
   xmlns:dc="http://purl.org/dc/elements/1.1/"
   xmlns:cc="http://creativecommons.org/ns#"
   xmlns:rdf="http://www.w3.org/1999/02/22-rdf-syntax-ns#"
   xmlns:svg="http://www.w3.org/2000/svg"
   xmlns="http://www.w3.org/2000/svg"
   xmlns:sodipodi="http://sodipodi.sourceforge.net/DTD/sodipodi-0.dtd"
   xmlns:inkscape="http://www.inkscape.org/namespaces/inkscape"
   version="1.1"
   id="svg2"
   xml:space="preserve"
   width="364"
   height="506.66666"
   viewBox="0 0 364 506.66666"
   sodipodi:docname="nequi-seeklogo.com.eps"><metadata
     id="metadata8"><rdf:RDF><cc:Work
         rdf:about=""><dc:format>image/svg+xml</dc:format><dc:type
           rdf:resource="http://purl.org/dc/dcmitype/StillImage" /></cc:Work></rdf:RDF></metadata><defs
     id="defs6" /><sodipodi:namedview
     pagecolor="#ffffff"
     bordercolor="#666666"
     borderopacity="1"
     objecttolerance="10"
     gridtolerance="10"
     guidetolerance="10"
     inkscape:pageopacity="0"
     inkscape:pageshadow="2"
     inkscape:window-width="640"
     inkscape:window-height="480"
     id="namedview4" /><g
     id="g10"
     inkscape:groupmode="layer"
     inkscape:label="ink_ext_XXXXXX"
     transform="matrix(1.3333333,0,0,-1.3333333,0,506.66667)"><g
       id="g12"
       transform="scale(0.1)"><path
         d="M 606.746,3337.1 C 503.426,3283.74 396.539,3228.54 264.887,3160.59 112.73,3082.06 28.5938,2827.07 124.074,2696.41 c 2.742,-3.75 5.477,-7.49 8.203,-11.22 117.141,160.97 210.024,288.46 322.563,443.12 49.402,67.9 100.957,138.75 151.906,208.79"
         style="fill:#fd2b72;fill-opacity:1;fill-rule:evenodd;stroke:none"
         id="path14" /><path
         d="M 605.996,2036.95 C 431.566,2275.57 295.891,2461.31 132.277,2685.19 102.559,2644.35 71.2734,2601.36 37.7109,2555.22 -57.8086,2423.9 48.582,2165.55 178.113,2100.25 410.551,1983.09 565.578,1904.81 787.848,1792.69 725.426,1875.48 664.363,1957.1 605.996,2036.95"
         style="fill:#2fc8d6;fill-opacity:1;fill-rule:evenodd;stroke:none"
         id="path16" /><path
         d="m 1714.32,1325.51 c -280.91,141.69 -554.38,279.52 -820.34,413.65 -37.257,18.79 -72.464,36.55 -106.132,53.53 133.058,-176.48 272.282,-358.24 404.652,-539.38 116.5,-159.41 305.95,-160.64 437.23,-19.04 28.53,30.77 56.72,61.18 84.59,91.24"
         style="fill:#fd2b72;fill-opacity:1;fill-rule:evenodd;stroke:none"
         id="path18" /><path
         d="m 2204.93,1854.69 c -151.37,-163.29 -314.48,-339.2 -490.61,-529.18 27.18,-13.71 54.43,-27.45 81.75,-41.23 156.69,-79.05 324.62,-7.76 369.48,152.53 53,189.39 103.13,368.42 150.55,537.81 -36.41,-39.28 -73.46,-79.25 -111.17,-119.93"
         style="fill:#2fc8d6;fill-opacity:1;fill-rule:evenodd;stroke:none"
         id="path20" /><path
         d="m 2397.8,2266.49 c -26.31,-93.99 -53.52,-191.23 -81.7,-291.87 119.41,128.83 231.89,250.2 337.97,364.63 76.31,82.32 101.56,186.76 8.41,291.52 -17.71,19.93 -35.4,39.81 -53.03,59.64 -22.65,25.47 -46.36,52.13 -70.76,79.56 -44.19,-157.86 -91.06,-325.42 -140.89,-503.48"
         style="fill:#fd2b72;fill-opacity:1;fill-rule:evenodd;stroke:none"
         id="path22" /><path
         d="m 2161.2,3194.37 c 110.93,-124.71 253.15,-284.59 377.49,-424.4 13.32,47.57 26.39,94.26 39.22,140.08 25.9,92.45 -1.38,184.89 -117.48,231.45 -25.45,10.21 -50.86,20.4 -76.2,30.56 -98.6,39.54 -207.46,83.18 -315.81,126.62 32.21,-36.22 63.43,-71.32 92.78,-104.31"
         style="fill:#2fc8d6;fill-opacity:1;fill-rule:evenodd;stroke:none"
         id="path24" /><path
         d="m 1734.39,3432.58 c 101.86,-40.84 217.65,-87.25 334.03,-133.9 -110.15,123.83 -231.72,260.53 -328.37,369.23 -16.08,18.08 -32.11,36.12 -48.1,54.11 -80.61,90.68 -180.87,82.03 -274.15,33.89 -69.32,-35.78 -140.65,-72.61 -214.08,-110.53 172.22,-69.06 359.33,-144.09 530.67,-212.8"
         style="fill:#fd2b72;fill-opacity:1;fill-rule:evenodd;stroke:none"
         id="path26" /><path
         d="m 2068.42,3298.68 c -116.38,46.65 -232.17,93.06 -334.03,133.9 -171.34,68.71 -358.45,143.74 -530.67,212.8 C 1098.79,3591.2 989.574,3534.78 875.785,3476.03 779.98,3426.57 694.652,3382.5 606.75,3337.09 555.793,3267.06 504.242,3196.21 454.84,3128.31 342.301,2973.65 249.418,2846.16 132.277,2685.19 c 163.614,-223.88 299.289,-409.62 473.719,-648.24 58.367,-79.85 119.43,-161.47 181.852,-244.26 33.668,-16.98 68.875,-34.74 106.132,-53.53 265.96,-134.13 539.43,-271.96 820.34,-413.65 176.13,189.98 339.24,365.89 490.61,529.18 37.71,40.68 74.76,80.65 111.17,119.93 28.18,100.64 55.39,197.88 81.7,291.87 49.83,178.06 96.7,345.62 140.89,503.48 -124.34,139.81 -266.56,299.69 -377.49,424.4 -29.35,32.99 -60.57,68.09 -92.78,104.31"
         style="fill:#200049;fill-opacity:1;fill-rule:evenodd;stroke:none"
         id="path28" /><path
         d="m 875.785,3476.03 c 113.789,58.75 223.005,115.17 327.935,169.35 -35.88,14.39 -71.11,28.52 -105.42,42.27 -9.01,3.62 -18.03,7.23 -27.02,10.83 -101.057,40.52 -177.042,33.77 -230.089,-39.15 -7.039,-9.67 -14.117,-19.4 -21.218,-29.16 -63.86,-87.78 -137.887,-189.53 -213.227,-293.07 87.906,45.4 173.234,89.47 269.039,138.93"
         style="fill:#2fc8d6;fill-opacity:1;fill-rule:evenodd;stroke:none"
         id="path30" /><path
         d="m 9.01953,15.457 v 541.195 c 0,5.524 4.47657,10.004 9.99997,10.004 16.5547,0 38.5118,2.891 44.1953,-4 L 419.836,168.504 v 387.68 c 0,5.523 4.477,10 10,10 h 56.508 c 5.523,0 10,-4.477 10,-10 V 15.457 c 0,-14.00778 -25.93,-11.72262 -30.598,-6.28512 L 87.0938,426.25 V 15.457 c 0,-5.5195 -4.4766,-9.99997 -10,-9.99997 H 19.0195 c -5.5234,0 -9.99997,4.48047 -9.99997,9.99997 z M 2662.02,566.184 h 56.51 c 5.52,0 10,-4.477 10,-10 V 15.457 c 0,-5.5195 -4.48,-9.99997 -10,-9.99997 h -56.51 c -5.52,0 -10,4.48047 -10,9.99997 v 540.727 c 0,5.523 4.48,10 10,10 z m -647.84,0 h 56.51 c 5.52,0 10,-4.477 10,-10 0,-30.504 -1.81,-355.411 1.27,-377.489 7.3,-52.414 38.97,-79.902 89.97,-91.8356 18.23,-4.2656 29.65,-3.6133 47.46,-3.625 v 0.039 c 53.15,0 97.52,31.8676 112.16,84.5316 4.91,17.644 6.34,66.871 6.34,91.316 v 297.063 c 0,5.523 4.47,10 10,10 h 56.5 c 5.52,0 10,-4.477 10,-10 V 259.371 c 0,-58.523 -5.19,-128.473 -39.93,-174.2265 -36.82,-48.4961 -90.55,-73.082 -152.07,-73.082 v 0.0391 c -52.23,0.164 -93.6,3.7382 -138.97,32.8125 -81.15,52.0117 -79.24,122.9259 -79.24,214.4569 v 296.813 c 0,5.523 4.48,10 10,10 z m -496.23,9.187 c 162.28,0 287.37,-121.293 287.37,-282.965 0,-77.843 -26.92,-145.043 -81.6,-200.1794 l 68.08,-68.25 c 6.26,-6.2813 1.74,-17.00394 -7.07,-17.00785 l -58.12,-0.02734 c -3.04,0 -5.75,1.35156 -7.59,3.48829 l -42.73,42.8398 C 1599.59,3.00781 1495.58,-4.48047 1411.82,29.5156 1307.19,71.9766 1237.34,173.828 1237.34,289.867 c 0,157.36 122.14,285.504 280.61,285.504 z m 6.2,-345.496 58.13,0.016 c 3.03,0 5.75,-1.352 7.58,-3.489 l 83.35,-83.543 c 89.24,91.684 79.77,260.446 -46.65,333.067 l -0.02,-0.028 c -140.1,80.454 -315.56,-16.851 -315.56,-185.91 0,-165.625 174.39,-260.0075 312.95,-184.234 l -106.85,107.101 c -6.24,6.262 -1.78,16.973 7.07,17.02 z M 745.273,566.184 H 1030.8 c 5.52,0 10,-4.477 10,-10 v -52.715 c 0,-5.524 -4.48,-10 -10,-10 H 811.781 V 344.02 h 216.669 c 5.51,0 10,-4.481 10,-10 v -52.719 c 0,-5.52 -4.49,-10 -10,-10 H 811.781 V 78.1758 h 216.669 c 5.51,0 10,-4.4805 10,-10.0039 V 15.457 c 0,-5.5195 -4.49,-9.99997 -10,-9.99997 H 745.273 c -5.519,0 -10,4.48047 -10,9.99997 v 540.727 c 0,5.523 4.481,10 10,10"
         style="fill:#200049;fill-opacity:1;fill-rule:nonzero;stroke:none"
         id="path32" /></g></g></svg>
